<svg width="24" height="24" viewBox="0 0 24 24" fill="none" xmlns="http://www.w3.org/2000/svg">
<g clip-path="url(#clip0_1026_35)">
<path d="M17.5726 2.11144C16.948 2.729 16.3758 3.39834 15.8672 4.11205L15.7063 4.06028C14.7788 3.76074 13.8176 3.57584 12.8489 3.51298C12.5572 3.49079 11.4688 3.49079 11.1135 3.51298C10.0401 3.58324 9.21733 3.74225 8.28231 4.06398C8.24491 4.07877 8.21125 4.08986 8.17759 4.10096C7.65024 3.39094 7.06305 2.7253 6.41602 2.11513C9.52027 0.543486 13.1519 0.354888 16.402 1.59372C16.7498 1.72315 17.0902 1.87476 17.423 2.03748L17.5726 2.11144Z" fill="#F00500"/>
<path d="M23.3622 16.1379C22.891 17.4655 22.1841 18.697 21.2678 19.7694C20.7704 20.3463 20.2206 20.8751 19.6296 21.3558C18.2458 22.4578 16.6301 23.2455 14.9059 23.6597C12.9985 24.1145 11.0088 24.1145 9.10136 23.6597C7.37345 23.2455 5.76149 22.4578 4.37766 21.3558C3.78673 20.8751 3.23694 20.3463 2.73951 19.7694C0.102766 16.6889 -0.697608 12.4584 0.645075 8.6458C0.8994 7.93948 1.21731 7.25905 1.59879 6.6119C1.77457 6.31606 1.9915 5.98324 2.09622 5.84641C2.45527 7.37369 2.89659 8.71606 3.06116 9.2005C3.04994 9.22638 3.03498 9.25597 3.02002 9.28185C2.14858 11.0273 1.67733 12.7099 1.56513 14.4997C1.56513 14.5219 1.56139 14.5478 1.56139 14.57C1.53147 15.1062 1.54643 15.3614 1.63619 15.6979C1.9167 16.7518 2.78065 17.913 4.13456 19.052C6.35242 20.9158 9.35943 22.2618 11.6371 22.4172C14.0121 22.5762 17.5165 21.2042 19.8503 19.1999C20.2168 18.8782 20.5609 18.5379 20.8826 18.1755C21.1145 17.9093 21.4585 17.4507 21.4324 17.4507C21.4249 17.4507 21.4324 17.4433 21.4473 17.4359C21.4585 17.4285 21.4698 17.4175 21.4623 17.4101C21.4585 17.4064 21.466 17.3953 21.4772 17.3916C21.4885 17.3879 21.4959 17.3805 21.4922 17.3731C21.4885 17.3657 21.4922 17.3583 21.5072 17.3546C21.5184 17.3509 21.5221 17.3398 21.5184 17.3324C21.5146 17.325 21.5184 17.3176 21.5259 17.3176C21.5333 17.3176 21.5408 17.3065 21.5408 17.2991C21.5408 17.2917 21.5483 17.2806 21.5558 17.2806C21.5633 17.2806 21.5707 17.2732 21.5707 17.2658C21.582 17.2363 21.6007 17.2067 21.6194 17.1808C21.6755 17.0957 21.8999 16.7 21.9298 16.6335C22.143 16.1564 22.2776 15.7312 22.3412 15.3059C22.3711 15.1025 22.3898 14.729 22.3749 14.6403C22.3711 14.6255 22.3711 14.5996 22.3674 14.5589C22.3599 14.4849 22.3562 14.374 22.3487 14.2631C22.3412 14.0967 22.3262 13.8637 22.315 13.749C22.1542 12.0701 21.7203 10.6982 20.8975 9.24487C20.8639 9.1894 20.8339 9.13393 20.8152 9.08956C20.8078 9.07846 20.804 9.06737 20.8003 9.05997C20.9162 8.71606 21.3912 7.27754 21.769 5.63193L21.7764 5.63932L21.8325 5.71328C21.9298 5.84271 22.1878 6.22731 22.3038 6.41221C22.8311 7.26275 23.2425 8.17615 23.5343 9.13024C24.2112 11.4267 24.1551 13.8748 23.3622 16.1379Z" fill="#F00500"/>
<path d="M18.5077 11.7189C18.4965 11.778 18.3207 11.9555 18.1449 12.085C17.6288 12.4585 16.7049 12.8061 15.7662 12.9725C15.2313 13.0686 14.6965 13.0834 14.5357 13.0058C14.431 12.954 14.416 12.9133 14.4534 12.7802C14.532 12.5028 14.7863 12.1996 15.1827 11.9148C15.3847 11.7706 16.2038 11.2788 16.5853 11.0717C17.2136 10.7315 17.7223 10.5281 18.0663 10.48C18.1748 10.4652 18.3057 10.4615 18.3469 10.48C18.4142 10.5059 18.489 10.7019 18.5189 10.9386C18.5339 11.0643 18.5264 11.619 18.5077 11.7189Z" fill="black"/>
<path d="M9.69605 12.9429C9.67361 12.9872 9.56141 13.0353 9.43425 13.0538C9.30708 13.0723 8.91812 13.0612 8.69745 13.0353C7.90456 12.9318 7.06304 12.6914 6.44967 12.3956C6.10558 12.2292 5.85873 12.0627 5.67547 11.8815L5.57075 11.7743L5.55953 11.6338C5.54083 11.3897 5.54457 11.0051 5.57449 10.8683C5.59319 10.7537 5.63433 10.6427 5.69043 10.5429C5.72035 10.5059 5.72035 10.5059 5.85499 10.5059C6.01956 10.5059 6.15794 10.5318 6.38234 10.602C6.84237 10.7426 7.52681 11.0828 8.36085 11.5783C9.04902 11.9851 9.30708 12.1848 9.50531 12.4584C9.63995 12.6285 9.72971 12.8689 9.69605 12.9429Z" fill="black"/>
<path d="M14.992 18.0905C14.992 18.1016 14.9471 18.2791 14.891 18.4899C14.8349 18.7007 14.7901 18.8708 14.7901 18.8782C14.7489 18.8819 14.7115 18.8856 14.6704 18.8819H14.5507L14.3861 19.2665C14.2964 19.4772 14.2141 19.6732 14.2029 19.7028L14.1804 19.7546L14.1019 19.6289L14.0233 19.5031V18.4788L13.9934 18.4862C13.9298 18.501 13.4773 18.5601 13.2791 18.5786C12.46 18.66 11.6372 18.6415 10.8218 18.5269C10.6909 18.5084 10.5787 18.4936 10.575 18.4973C10.5712 18.501 10.575 18.7376 10.5825 19.0298L10.5937 19.5549L10.5301 19.651C10.4964 19.7028 10.4628 19.7472 10.4628 19.7509C10.4516 19.762 10.4142 19.7028 10.3281 19.5327C10.2346 19.3552 10.1673 19.1666 10.1187 18.9706L10.0925 18.8634L9.97657 18.8708L9.86062 18.8819L9.8307 18.745C9.81574 18.6711 9.79704 18.5564 9.78956 18.4936L9.77834 18.3752L9.6811 18.2902C9.625 18.2421 9.5689 18.194 9.55768 18.1866C9.53898 18.1718 9.53149 18.146 9.53149 18.1238V18.0794L9.999 18.0831L10.4665 18.0868L10.4815 18.1349L10.4964 18.1829L10.6573 18.1903C10.747 18.194 11.0313 18.2014 11.2856 18.2088L11.7531 18.2199L11.8728 18.035L11.9962 17.8501H12.1533L12.1496 17.4655L12.1458 17.0809L11.9401 16.9922C11.2781 16.7037 10.8891 16.3746 10.7433 15.9752C10.7134 15.8939 10.7134 15.8643 10.7059 15.4945C10.7021 15.1284 10.7021 15.0951 10.7283 15.0138C10.7807 14.8289 10.9265 14.6846 11.1136 14.6366C11.1771 14.6181 11.3454 14.6181 12.2281 14.6181L13.2678 14.6218L13.3838 14.6772C13.5222 14.7438 13.5857 14.7919 13.6643 14.8954C13.7541 15.0138 13.7802 15.1062 13.7802 15.3318C13.7802 15.6535 13.7578 15.9309 13.7241 16.0418C13.6755 16.1934 13.6007 16.3376 13.5072 16.4671C13.3202 16.7037 12.9799 16.9404 12.6694 17.0477L12.5797 17.0809L12.5834 17.4692L12.5871 17.8575L12.6694 17.8649L12.7517 17.8723L12.8639 18.0387L12.9724 18.2051H13.4735C13.7503 18.2051 13.9934 18.2088 14.0159 18.2125C14.0533 18.2199 14.0607 18.2162 14.0981 18.1534L14.143 18.0868H14.5731C14.8948 18.072 14.992 18.0794 14.992 18.0905Z" fill="black"/>
<path d="M13.0173 19.1518C12.9462 19.1925 12.8976 19.211 12.8864 19.2036C12.8752 19.1999 12.8228 19.1555 12.7667 19.1148L12.6657 19.0335L12.561 19.1444C12.3328 19.3885 12.3254 19.3996 12.258 19.4033C12.1533 19.4144 12.1309 19.3959 12.0037 19.2073C11.9364 19.1111 11.884 19.0298 11.884 19.0298C11.884 19.0298 11.8354 19.0224 11.7793 19.0187L11.6746 19.0076L11.626 19.1074L11.5774 19.2073L11.4913 19.1814C11.424 19.1592 11.3567 19.1333 11.2931 19.1037L11.1809 19.0483V18.8375L12.1758 18.8412L13.1706 18.8449L13.1744 18.9447C13.1781 19.063 13.1818 19.0594 13.0173 19.1518Z" fill="black"/>
<path d="M22.3674 14.6402C22.3636 14.6254 22.3636 14.5996 22.3599 14.5589C21.4623 14.4627 18.9003 14.4036 16.5216 16.345C16.5216 16.345 15.7549 12.8689 12.1645 12.8689C8.57399 12.8689 7.24253 16.345 7.24253 16.345C5.23037 14.2039 2.53753 14.3592 1.56511 14.4997C1.56511 14.5219 1.56137 14.5478 1.56137 14.57C1.53145 15.1062 1.54641 15.3613 1.63617 15.6979C1.91667 16.7518 2.78063 17.913 4.13453 19.0519C6.35239 20.9157 9.35941 22.2618 11.6371 22.4171C14.012 22.5761 17.5165 21.2042 19.8503 19.1999C20.2168 18.8781 20.5609 18.5379 20.8825 18.1755C21.1144 17.9093 21.4585 17.4507 21.4323 17.4507C21.4249 17.4507 21.4323 17.4433 21.4473 17.4359C21.4585 17.4285 21.4697 17.4174 21.4623 17.41C21.4585 17.4063 21.466 17.3952 21.4772 17.3915C21.4884 17.3878 21.4959 17.3805 21.4922 17.3731C21.4884 17.3657 21.4922 17.3583 21.5071 17.3546C21.5184 17.3509 21.5221 17.3398 21.5184 17.3324C21.5146 17.325 21.5184 17.3176 21.5258 17.3176C21.5333 17.3176 21.5408 17.3065 21.5408 17.2991C21.5408 17.2917 21.5483 17.2806 21.5558 17.2806C21.5632 17.2806 21.5707 17.2732 21.5707 17.2658C21.5819 17.2362 21.6006 17.2066 21.6193 17.1808C21.6754 17.0957 21.8998 16.7 21.9298 16.6335C22.143 16.1564 22.2776 15.7311 22.3412 15.3059C22.3636 15.1025 22.3823 14.729 22.3674 14.6402ZM13.0172 19.1518C12.9461 19.1925 12.8975 19.211 12.8863 19.2036C12.8751 19.1999 12.8227 19.1555 12.7666 19.1148L12.6656 19.0335L12.5609 19.1444C12.3328 19.3885 12.3253 19.3996 12.258 19.4033C12.1532 19.4144 12.1308 19.3959 12.0036 19.2073C11.9363 19.1111 11.884 19.0298 11.884 19.0298C11.884 19.0298 11.8353 19.0224 11.7792 19.0187L11.6745 19.0076L11.6259 19.1074L11.5773 19.2073L11.4912 19.1814C11.4239 19.1592 11.3566 19.1333 11.293 19.1037L11.1808 19.0482V18.8375L12.1757 18.8412L13.1705 18.8449L13.1743 18.9447C13.178 19.063 13.1818 19.0593 13.0172 19.1518ZM14.8872 18.4862C14.8311 18.6969 14.7862 18.867 14.7862 18.8744C14.7451 18.8781 14.7077 18.8818 14.6666 18.8781H14.5469L14.3861 19.2664C14.2963 19.4772 14.214 19.6732 14.2028 19.7028L14.1804 19.7546L14.1018 19.6288L14.0233 19.5031V18.4788L13.9933 18.4862C13.9298 18.5009 13.4772 18.5601 13.279 18.5786C12.4599 18.66 11.6371 18.6415 10.8218 18.5268C10.6909 18.5083 10.5787 18.4935 10.5749 18.4972C10.5712 18.5009 10.5749 18.7376 10.5824 19.0298L10.5936 19.5549L10.53 19.651C10.4964 19.7028 10.4627 19.7472 10.4627 19.7509C10.4515 19.762 10.4141 19.7028 10.3281 19.5327C10.2346 19.3552 10.1673 19.1666 10.1186 18.9706L10.0925 18.8633L9.97652 18.8707L9.86058 18.8818L9.83065 18.745C9.81569 18.6711 9.79699 18.5564 9.78951 18.4935L9.7783 18.3752L9.68105 18.2902C9.62495 18.2421 9.56885 18.194 9.55763 18.1866C9.53893 18.1718 9.53145 18.1459 9.53145 18.1237V18.0794L9.99896 18.0831L10.4665 18.0868L10.4814 18.1348L10.4964 18.1829L10.6572 18.1903C10.747 18.194 11.0312 18.2014 11.2855 18.2088L11.753 18.2199L11.8727 18.035L11.9962 17.8501H12.1532L12.1495 17.4655L12.1458 17.0809L11.9401 16.9922C11.2781 16.7037 10.8891 16.3746 10.7432 15.9752C10.7133 15.8939 10.7133 15.8643 10.7058 15.4945C10.7021 15.1284 10.7021 15.0951 10.7283 15.0137C10.7806 14.8288 10.9265 14.6846 11.1135 14.6365C11.1771 14.618 11.3454 14.618 12.228 14.618L13.2678 14.6217L13.3837 14.6772C13.5221 14.7438 13.5857 14.7919 13.6642 14.8954C13.754 15.0137 13.7802 15.1062 13.7802 15.3318C13.7802 15.6535 13.7577 15.9308 13.7241 16.0418C13.6754 16.1934 13.6006 16.3376 13.5071 16.467C13.3201 16.7037 12.9798 16.9404 12.6694 17.0476L12.5796 17.0809L12.5833 17.4692L12.5871 17.8575L12.6694 17.8649L12.7516 17.8723L12.8638 18.0387L12.9723 18.2051H13.4735C13.7502 18.2051 13.9933 18.2088 14.0158 18.2125C14.0532 18.2199 14.0607 18.2162 14.0981 18.1533L14.143 18.0868H14.5731C14.9059 18.0868 15.0032 18.0905 15.0032 18.1016C14.9919 18.0979 14.9433 18.2791 14.8872 18.4862Z" fill="white"/>
<path d="M22.3374 14.2631C22.3299 14.0966 22.315 13.8637 22.3038 13.749C22.1429 12.0701 21.7091 10.6982 20.8863 9.24487C20.8526 9.1894 20.8227 9.13393 20.804 9.08956C20.7965 9.07846 20.7928 9.06737 20.789 9.05997C20.905 8.71606 21.38 7.27754 21.7577 5.63193C22.2701 3.39834 22.5955 0.787561 21.6006 0.00358658C21.6006 0.00358658 19.8802 -0.122145 17.5763 2.11144C16.9517 2.72901 16.3795 3.39834 15.8708 4.11206L15.71 4.06028C14.7825 3.76075 13.8213 3.57585 12.8526 3.51298C12.5609 3.49079 11.4725 3.49079 11.1172 3.51298C10.0438 3.58324 9.22101 3.74226 8.286 4.06398C8.24859 4.07877 8.21493 4.08987 8.18127 4.10096C7.65392 3.39095 7.06673 2.72531 6.4197 2.11514C4.02232 -0.129541 2.23831 -0.000111639 2.23831 -0.000111639C1.18361 0.809749 1.54266 3.53887 2.08871 5.84642C2.44775 7.37369 2.88908 8.71606 3.05364 9.2005C3.04242 9.22638 3.02746 9.25597 3.0125 9.28185C2.14107 11.0273 1.66982 12.7099 1.55762 14.4997C2.53377 14.3592 5.22288 14.2002 7.23878 16.345C7.23878 16.345 8.57024 12.8689 12.1607 12.8689C15.7512 12.8689 16.5179 16.345 16.5179 16.345C18.8966 14.4036 21.4585 14.4664 22.3561 14.5589C22.3524 14.4849 22.3449 14.374 22.3374 14.2631ZM3.76052 7.80635C3.76052 7.80635 2.36173 4.34873 2.72078 2.374C2.78062 2.04118 2.89282 1.74904 3.0686 1.52716C3.0686 1.52716 4.65439 1.68248 7.21259 4.49295C7.21259 4.49295 6.72639 4.72592 6.07562 5.22146C6.07562 5.22146 6.07188 5.22515 6.06813 5.22515C5.36126 5.76136 4.45617 6.6119 3.76052 7.80635ZM9.696 12.9429C9.67356 12.9872 9.56136 13.0353 9.43419 13.0538C9.30703 13.0723 8.91807 13.0612 8.6974 13.0353C7.90451 12.9318 7.06299 12.6914 6.44962 12.3956C6.10554 12.2292 5.85869 12.0627 5.67543 11.8815L5.57071 11.7743L5.55949 11.6338C5.54079 11.3897 5.54453 11.0051 5.57445 10.8683C5.59315 10.7537 5.63429 10.6427 5.69039 10.5429C5.72031 10.5059 5.72031 10.5059 5.85495 10.5059C6.01952 10.5059 6.1579 10.5318 6.3823 10.602C6.84233 10.7426 7.52676 11.0828 8.3608 11.5783C9.04897 11.9851 9.30703 12.1848 9.50526 12.4584C9.6399 12.6285 9.72966 12.8689 9.696 12.9429ZM18.5076 11.7188C18.4964 11.778 18.3206 11.9555 18.1448 12.0849C17.6287 12.4584 16.7049 12.806 15.7661 12.9724C15.2313 13.0686 14.6965 13.0834 14.5356 13.0057C14.4309 12.954 14.416 12.9133 14.4534 12.7802C14.5319 12.5028 14.7862 12.1996 15.1827 11.9148C15.3846 11.7706 16.2037 11.2788 16.5852 11.0717C17.2135 10.7315 17.7222 10.5281 18.0663 10.48C18.1747 10.4652 18.3056 10.4615 18.3468 10.48C18.4141 10.5059 18.4889 10.7019 18.5188 10.9386C18.5338 11.0643 18.5263 11.619 18.5076 11.7188ZM17.8867 5.22146L17.8793 5.21776C17.2509 4.72223 16.7797 4.48925 16.7797 4.48925C19.2519 1.67878 20.7816 1.52346 20.7816 1.52346C20.9499 1.74904 21.0583 2.03748 21.1182 2.3703C21.466 4.34503 20.1158 7.80635 20.1158 7.80635C19.5511 6.81159 18.7918 5.93147 17.8867 5.22146Z" fill="#FFA409"/>
<path d="M21.122 2.37031C20.8302 2.33333 19.4502 2.32593 17.8868 5.22146L17.8794 5.21777C17.251 4.72224 16.7798 4.48926 16.7798 4.48926C19.252 1.67878 20.7816 1.52347 20.7816 1.52347C20.9537 1.74905 21.0621 2.03749 21.122 2.37031Z" fill="#FF9300"/>
<path d="M20.1195 7.80638C19.551 6.80792 18.7956 5.93149 17.8867 5.22148C19.4501 2.32595 20.8264 2.33334 21.1219 2.37032C21.4697 4.34875 20.1195 7.80638 20.1195 7.80638Z" fill="#FF8300"/>
<path d="M21.1782 2.38139C21.1595 2.3777 21.1408 2.374 21.1221 2.3703L21.1782 2.38139Z" fill="#FF8300"/>
<path d="M7.21284 4.48926C7.21284 4.48926 6.72664 4.72224 6.07587 5.21777C6.07587 5.21777 6.07212 5.22146 6.06838 5.22146C4.44893 2.32224 3.02397 2.33333 2.71729 2.37031C2.77713 2.03749 2.88933 1.74535 3.06511 1.52347C3.06885 1.52347 4.65464 1.67878 7.21284 4.48926Z" fill="#FF9300"/>
<path d="M6.07215 5.22148C5.36154 5.76139 4.45644 6.60823 3.76079 7.80638C3.76079 7.80638 2.362 4.34875 2.72105 2.37032C3.02399 2.33334 4.4527 2.32595 6.07215 5.22148Z" fill="#FF8300"/>
<path d="M2.72097 2.3703C2.70227 2.374 2.67983 2.3777 2.66113 2.38139L2.72097 2.3703Z" fill="#FF8300"/>
<path d="M16.3348 9.72563C16.3348 9.72563 15.138 9.79959 15.2876 8.87509C15.4372 7.95059 16.3722 7.83965 16.634 7.87663C16.8958 7.91361 17.943 8.28341 17.756 9.05999C17.569 9.83657 17.3072 9.68865 17.1576 9.72563C17.008 9.76261 16.3348 9.72563 16.3348 9.72563Z" fill="white"/>
<path d="M7.50815 9.72563C7.50815 9.72563 6.31134 9.79959 6.46094 8.87509C6.61054 7.95059 7.54555 7.83965 7.80736 7.87663C8.06916 7.91361 9.11638 8.28341 8.92938 9.05999C8.74237 9.83657 8.48057 9.68865 8.33097 9.72563C8.18136 9.76261 7.50815 9.72563 7.50815 9.72563Z" fill="white"/>
</g>
<defs>
<clipPath id="clip0_1026_35">
<rect width="24" height="24" fill="white"/>
</clipPath>
</defs>
</svg>
